<?xml version="1.0" encoding="UTF-8"?>
<svg width="14px" height="18px" viewBox="0 0 14 18" version="1.1" xmlns="http://www.w3.org/2000/svg" xmlns:xlink="http://www.w3.org/1999/xlink">
    <!-- Generator: Sketch 57.1 (83088) - https://sketch.com -->
    <title></title>
    <desc>Created with Sketch.</desc>
    <g id="Page-1" stroke="none" stroke-width="1" fill="none" fill-rule="evenodd">
        <g id="Кевин-xl-Copy" transform="translate(-1019.000000, -23.000000)" fill="#F4C247" fill-rule="nonzero">
            <g id="Шапка">
                <g id="Group-49" transform="translate(1019.000000, 23.000000)">
                    <path d="M6.8203125,0 C7.87500527,0 8.81835521,0.181638809 9.65039062,0.544921875 C10.482426,0.908204941 11.1826143,1.40331718 11.7509766,2.03027344 C12.3193388,2.6572297 12.7529282,3.38671459 13.0517578,4.21875 C13.3505874,5.05078541 13.5,5.92968287 13.5,6.85546875 C13.5,7.79297344 13.3154315,8.75097167 12.9462891,9.72949219 C12.5771466,10.7080127 12.1113309,11.6689406 11.5488281,12.6123047 C10.9863253,13.5556688 10.3769564,14.4492145 9.72070312,15.2929688 C9.06444984,16.136723 8.44922162,16.8867155 7.875,17.5429688 C7.875,17.5546876 7.78711025,17.6337883 7.61132813,17.7802734 C7.435546,17.9267585 7.23046992,18 6.99609375,18 L6.94335937,18 C6.69726439,18 6.48925866,17.9267585 6.31933594,17.7802734 C6.14941321,17.6337883 6.06445312,17.5546876 6.06445312,17.5429688 C5.45507508,16.8398402 4.79590198,16.0722698 4.08691406,15.2402344 C3.37792614,14.408199 2.72168271,13.5322312 2.11816406,12.6123047 C1.51464542,11.6923782 1.01074421,10.7460986 0.606445312,9.7734375 C0.202146416,8.80077639 0,7.82812986 0,6.85546875 C0,5.92968287 0.181638809,5.05078541 0.544921875,4.21875 C0.908204941,3.38671459 1.40038752,2.6572297 2.02148438,2.03027344 C2.64258123,1.40331718 3.36620681,0.908204941 4.19238281,0.544921875 C5.01855882,0.181638809 5.89452662,0 6.8203125,0 Z M7.03125,16.7871094 C7.92187945,15.767573 8.70116854,14.7949265 9.36914062,13.8691406 C10.0371127,12.9433547 10.5937478,12.0673869 11.0390625,11.2412109 C11.4843772,10.4150349 11.8183583,9.63574585 12.0410156,8.90332031 C12.263673,8.17089478 12.375,7.48828441 12.375,6.85546875 C12.375,6.14062143 12.2666026,5.44043312 12.0498047,4.75488281 C11.8330067,4.06933251 11.496096,3.45703395 11.0390625,2.91796875 C10.582029,2.37890355 10.0048863,1.94531414 9.30761719,1.6171875 C8.61034808,1.28906086 7.7812548,1.125 6.8203125,1.125 C6.04687113,1.125 5.31445658,1.27734223 4.62304688,1.58203125 C3.93163717,1.88672027 3.32812758,2.29980208 2.8125,2.82128906 C2.29687242,3.34277604 1.88672027,3.95214495 1.58203125,4.64941406 C1.27734223,5.34668317 1.125,6.08202738 1.125,6.85546875 C1.125,7.68750416 1.30077949,8.53124572 1.65234375,9.38671875 C2.00390801,10.2421918 2.44921605,11.0830037 2.98828125,11.9091797 C3.52734645,12.7353557 4.1191374,13.5322227 4.76367188,14.2998047 C5.40820635,15.0673867 6.01757525,15.7851529 6.59179688,16.453125 L6.890625,16.7871094 L6.9609375,16.8574219 C6.97265631,16.8457031 6.9873046,16.8339844 7.00488281,16.8222656 C7.02246103,16.8105468 7.03125,16.7988282 7.03125,16.7871094 Z M6.76757812,3.39257812 C7.70508281,3.39257812 8.50194984,3.7236295 9.15820312,4.38574219 C9.81445641,5.04785487 10.1425781,5.84179225 10.1425781,6.76757812 C10.1425781,7.70508281 9.81445641,8.50194984 9.15820312,9.15820312 C8.50194984,9.81445641 7.70508281,10.1425781 6.76757812,10.1425781 C5.84179225,10.1425781 5.04785487,9.81445641 4.38574219,9.15820312 C3.7236295,8.50194984 3.39257812,7.70508281 3.39257812,6.76757812 C3.39257812,5.84179225 3.7236295,5.04785487 4.38574219,4.38574219 C5.04785487,3.7236295 5.84179225,3.39257812 6.76757812,3.39257812 Z M6.76757812,9.01757812 C7.38867498,9.01757812 7.91601346,8.7949241 8.34960938,8.34960938 C8.78320529,7.90429465 9,7.37109686 9,6.75 C9,6.12890314 8.78027563,5.59863501 8.34082031,5.15917969 C7.90136499,4.71972437 7.37109686,4.5 6.75,4.5 C6.12890314,4.5 5.59863501,4.71972437 5.15917969,5.15917969 C4.71972437,5.59863501 4.5,6.12890314 4.5,6.75 C4.5,7.37109686 4.72265402,7.90429465 5.16796875,8.34960938 C5.61328348,8.7949241 6.14648127,9.01757812 6.76757812,9.01757812 Z" id=""></path>
                </g>
            </g>
        </g>
    </g>
</svg>