<?xml version="1.0" encoding="UTF-8"?>
<svg width="64px" height="80px" viewBox="0 0 64 80" version="1.1" xmlns="http://www.w3.org/2000/svg" xmlns:xlink="http://www.w3.org/1999/xlink">
    <!-- Generator: Sketch 57.1 (83088) - https://sketch.com -->
    <title>182540</title>
    <desc>Created with Sketch.</desc>
    <g id="Page-1" stroke="none" stroke-width="1" fill="none" fill-rule="evenodd">
        <g id="Кевин-xl" transform="translate(-1021.000000, -1516.000000)" fill="#3d3d3d" fill-rule="nonzero">
            <g id="4-блок-" transform="translate(0.000000, 1446.000000)">
                <g id="Group-12" transform="translate(948.000000, 70.000000)">
                    <g id="182540" transform="translate(73.000000, 0.000000)">
                        <path d="M30.6382846,41.2530214 L30.6382846,65.2062378 C30.6382846,65.9407407 31.2344639,66.5369201 31.9689669,66.5369201 C32.7034698,66.5369201 33.2996491,65.9407407 33.2996491,65.2062378 L33.2996491,41.2530214 C33.2996491,40.5185185 32.7034698,39.9223392 31.9689669,39.9223392 C31.2344639,39.9223392 30.6382846,40.5185185 30.6382846,41.2530214 Z" id="Path"></path>
                        <path d="M37.2918519,23.9535283 C37.2918519,21.0178558 34.9044834,18.6306433 31.9689669,18.6306433 C29.0334503,18.6306433 26.6460819,21.0180117 26.6460819,23.9535283 C26.6460819,26.8892008 29.0334503,29.2764133 31.9689669,29.2764133 C34.9044834,29.2764133 37.2918519,26.8892008 37.2918519,23.9535283 Z M31.9689669,26.6150487 C30.5012086,26.6150487 29.3074464,25.4214425 29.3074464,23.9535283 C29.3074464,22.48577 30.5010526,21.2920078 31.9689669,21.2920078 C33.4367251,21.2920078 34.6304873,22.485614 34.6304873,23.9535283 C34.6304873,25.4212865 33.4367251,26.6150487 31.9689669,26.6150487 Z" id="Shape"></path>
                        <path d="M19.9923587,61.2140351 C20.7268616,61.2140351 21.3230409,60.6178558 21.3230409,59.8833528 L21.3230409,22.622846 C21.3230409,22.5444055 21.3949318,15.5140741 25.8635478,9.59766082 C27.0385965,10.0368031 29.1650682,10.6462378 31.9689669,10.6462378 C34.7808187,10.6462378 36.9007407,10.034152 38.0690838,9.59360624 C42.5216374,15.4953606 42.6148928,22.545653 42.6148928,22.622846 L42.6148928,59.8833528 C42.6148928,60.6178558 43.2110721,61.2140351 43.945575,61.2140351 C44.680078,61.2140351 45.2762573,60.6178558 45.2762573,59.8833528 L45.2762573,22.622846 C45.2762573,22.2195712 45.1964133,12.6755556 38.2326706,5.71321637 L32.9097856,0.390175439 C32.3893957,-0.13005848 31.5483821,-0.13005848 31.0281481,0.390175439 L25.7052632,5.71306043 C18.7415205,12.6753996 18.6616764,22.2194152 18.6616764,22.6226901 L18.6616764,59.8831969 C18.6616764,60.6180117 19.2578558,61.2140351 19.9923587,61.2140351 Z M31.9689669,3.21278752 L36.1727875,7.41660819 C35.1574269,7.70401559 33.7216374,7.98487329 31.9689669,7.98487329 C30.2217544,7.98487329 28.7831579,7.7054191 27.7638986,7.4180117 L31.9689669,3.21278752 Z" id="Shape"></path>
                        <path d="M4.02354776,69.1984405 C3.28904483,69.1984405 2.6928655,69.7946199 2.6928655,70.5291228 L2.6928655,73.1906433 C2.6928655,73.9251462 3.28904483,74.5213255 4.02354776,74.5213255 C4.75805068,74.5213255 5.35423002,73.9251462 5.35423002,73.1906433 L5.35423002,70.5291228 C5.35423002,69.7946199 4.75805068,69.1984405 4.02354776,69.1984405 Z" id="Path"></path>
                        <path d="M9.34643275,69.1984405 C8.61192982,69.1984405 8.01575049,69.7946199 8.01575049,70.5291228 L8.01575049,78.5135283 C8.01575049,79.2480312 8.61192982,79.8442105 9.34643275,79.8442105 C10.0809357,79.8442105 10.677115,79.2480312 10.677115,78.5135283 L10.677115,70.5291228 C10.677271,69.7946199 10.0810916,69.1984405 9.34643275,69.1984405 Z" id="Path"></path>
                        <path d="M59.914386,69.1984405 C59.179883,69.1984405 58.5837037,69.7946199 58.5837037,70.5291228 L58.5837037,73.1906433 C58.5837037,73.9251462 59.179883,74.5213255 59.914386,74.5213255 C60.6488889,74.5213255 61.2450682,73.9251462 61.2450682,73.1906433 L61.2450682,70.5291228 C61.2450682,69.7946199 60.6488889,69.1984405 59.914386,69.1984405 Z" id="Path"></path>
                        <path d="M55.8223782,49.6926316 L53.2606628,48.4151267 L53.2606628,38.5916569 C53.2606628,36.3906433 51.4694737,34.5994542 49.26846,34.5994542 C48.5339571,34.5994542 47.9377778,35.1956335 47.9377778,35.9301365 C47.9377778,36.6646394 48.5339571,37.2608187 49.26846,37.2608187 C50.0017154,37.2608187 50.5991423,37.8582456 50.5991423,38.591501 L50.5991423,49.2374269 C50.5991423,49.7417544 50.8838986,50.2022612 51.3350487,50.4283821 L54.6459259,52.0798441 C56.7870565,53.1351267 61.2450682,55.3308382 61.2450682,57.2218324 L61.2450682,63.8755556 L46.6069396,63.8755556 C46.2569981,63.8755556 45.9176608,64.0165302 45.6687719,64.262768 C45.6182456,64.3120468 40.5760624,69.1984405 31.9688109,69.1984405 C23.3615595,69.1984405 18.3195322,64.3120468 18.271501,64.2654191 C18.0226121,64.0152827 17.6832749,63.8755556 17.3306823,63.8755556 L2.6928655,63.8755556 L2.6928655,57.2218324 C2.6928655,55.3308382 7.15087719,53.1351267 9.2920078,52.0798441 L12.602885,50.4283821 C13.0540351,50.2021053 13.3387914,49.7417544 13.3387914,49.2374269 L13.3387914,38.591501 C13.3387914,37.8582456 13.9362183,37.2608187 14.6694737,37.2608187 C15.4039766,37.2608187 16.0001559,36.6646394 16.0001559,35.9301365 C16.0001559,35.1956335 15.4039766,34.5994542 14.6694737,34.5994542 C12.46846,34.5994542 10.677271,36.3906433 10.677271,38.5916569 L10.677271,48.4151267 L8.11555556,49.6926316 C4.89653021,51.2789084 0.0313450292,53.6754776 0.0313450292,57.2219883 L0.0313450292,65.2063938 C0.0313450292,65.9408967 0.627524366,66.537076 1.36202729,66.537076 L16.8145029,66.537076 C18.3048733,67.8345419 23.6079532,71.859961 31.9689669,71.859961 C40.3299805,71.859961 45.6329045,67.8345419 47.1234308,66.537076 L62.5759064,66.537076 C63.3104094,66.537076 63.9065887,65.9408967 63.9065887,65.2063938 L63.9065887,57.2219883 C63.9065887,53.6754776 59.0414035,51.2789084 55.8223782,49.6926316 Z" id="Path"></path>
                        <path d="M14.6694737,69.1984405 C13.9349708,69.1984405 13.3387914,69.7946199 13.3387914,70.5291228 L13.3387914,75.8520078 C13.3387914,76.5865107 13.9349708,77.1826901 14.6694737,77.1826901 C15.4039766,77.1826901 16.0001559,76.5865107 16.0001559,75.8520078 L16.0001559,70.5291228 C16.0001559,69.7946199 15.4039766,69.1984405 14.6694737,69.1984405 Z" id="Path"></path>
                        <path d="M54.591501,69.1984405 C53.8569981,69.1984405 53.2608187,69.7946199 53.2608187,70.5291228 L53.2608187,78.5135283 C53.2608187,79.2480312 53.8569981,79.8442105 54.591501,79.8442105 C55.3260039,79.8442105 55.9221832,79.2480312 55.9221832,78.5135283 L55.9221832,70.5291228 C55.9221832,69.7946199 55.3260039,69.1984405 54.591501,69.1984405 Z" id="Path"></path>
                        <path d="M49.26846,69.1984405 C48.5339571,69.1984405 47.9377778,69.7946199 47.9377778,70.5291228 L47.9377778,75.8520078 C47.9377778,76.5865107 48.5339571,77.1826901 49.26846,77.1826901 C50.002963,77.1826901 50.5991423,76.5865107 50.5991423,75.8520078 L50.5991423,70.5291228 C50.5992982,69.7946199 50.0031189,69.1984405 49.26846,69.1984405 Z" id="Path"></path>
                    </g>
                </g>
            </g>
        </g>
    </g>
</svg>