<?xml version="1.0" encoding="UTF-8"?>
<svg width="75px" height="80px" viewBox="0 0 75 80" version="1.1" xmlns="http://www.w3.org/2000/svg" xmlns:xlink="http://www.w3.org/1999/xlink">
    <!-- Generator: Sketch 57.1 (83088) - https://sketch.com -->
    <title>182330</title>
    <desc>Created with Sketch.</desc>
    <g id="Page-1" stroke="none" stroke-width="1" fill="none" fill-rule="evenodd">
        <g id="Кевин-xl" transform="translate(-351.000000, -1516.000000)" fill="#3d3d3d" fill-rule="nonzero">
            <g id="4-блок-" transform="translate(0.000000, 1446.000000)">
                <g id="Group-44" transform="translate(275.000000, 70.000000)">
                    <g id="182330" transform="translate(76.000000, 0.000000)">
                        <path d="M55.8987914,49.237115 C55.8987914,48.5026121 55.3026121,47.9064327 54.5681092,47.9064327 L46.5837037,47.9064327 C45.8492008,47.9064327 45.2530214,48.5026121 45.2530214,49.237115 C45.2530214,49.9716179 45.8492008,50.5677973 46.5837037,50.5677973 L54.5681092,50.5677973 C55.3026121,50.5679532 55.8987914,49.9717739 55.8987914,49.237115 Z" id="Path"></path>
                        <path d="M50.5757505,14.6381287 L50.5757505,7.98440546 C50.5757505,7.24990253 49.9795712,6.6537232 49.2450682,6.6537232 C48.5105653,6.6537232 47.914386,7.24990253 47.914386,7.98440546 L47.914386,14.6381287 C47.914386,18.3069006 50.8991813,21.2918519 54.5681092,21.2918519 L66.5447173,21.2918519 L66.5447173,46.5757505 C66.5447173,47.3102534 67.1408967,47.9064327 67.8753996,47.9064327 C68.6099025,47.9064327 69.2060819,47.3102534 69.2060819,46.5757505 L69.2060819,19.9610136 C69.2060819,19.2265107 68.6099025,18.6303314 67.8753996,18.6303314 L54.5681092,18.6303314 C52.3669396,18.6303314 50.5757505,16.8391423 50.5757505,14.6381287 Z" id="Path"></path>
                        <path d="M54.5679532,31.9376218 L43.9220273,31.9376218 C43.1875244,31.9376218 42.591345,32.5338012 42.591345,33.2683041 C42.591345,34.002807 43.1875244,34.5989864 43.9220273,34.5989864 L54.5679532,34.5989864 C55.3024561,34.5989864 55.8986355,34.002807 55.8986355,33.2683041 C55.8987914,32.5338012 55.3026121,31.9376218 54.5679532,31.9376218 Z" id="Path"></path>
                        <path d="M39.9299805,33.2683041 C39.9299805,32.5338012 39.3338012,31.9376218 38.5992982,31.9376218 L30.6148928,31.9376218 C29.8803899,31.9376218 29.2842105,32.5338012 29.2842105,33.2683041 C29.2842105,34.002807 29.8803899,34.5989864 30.6148928,34.5989864 L38.5992982,34.5989864 C39.3338012,34.5991423 39.9299805,34.002963 39.9299805,33.2683041 Z" id="Path"></path>
                        <path d="M30.6147368,39.9220273 C29.8802339,39.9220273 29.2840546,40.5182066 29.2840546,41.2527096 C29.2840546,41.9872125 29.8802339,42.5833918 30.6147368,42.5833918 L33.2762573,42.5833918 C34.0107602,42.5833918 34.6069396,41.9872125 34.6069396,41.2527096 C34.6069396,40.5182066 34.0107602,39.9220273 33.2762573,39.9220273 L30.6147368,39.9220273 Z" id="Path"></path>
                        <path d="M30.6147368,26.6147368 L43.9220273,26.6147368 C44.6565302,26.6147368 45.2527096,26.0185575 45.2527096,25.2840546 C45.2527096,24.5495517 44.6565302,23.9533723 43.9220273,23.9533723 L30.6147368,23.9533723 C29.8802339,23.9533723 29.2840546,24.5495517 29.2840546,25.2840546 C29.2840546,26.0185575 29.8802339,26.6147368 30.6147368,26.6147368 Z" id="Path"></path>
                        <path d="M38.5991423,42.5835478 L51.9064327,42.5835478 C52.6409357,42.5835478 53.237115,41.9873684 53.237115,41.2528655 C53.237115,40.5183626 52.6409357,39.9221832 51.9064327,39.9221832 L38.5991423,39.9221832 C37.8646394,39.9221832 37.26846,40.5183626 37.26846,41.2528655 C37.26846,41.9873684 37.8646394,42.5835478 38.5991423,42.5835478 Z" id="Path"></path>
                        <path d="M46.5835478,55.8908382 C45.8490448,55.8908382 45.2528655,56.4870175 45.2528655,57.2215205 C45.2528655,57.9560234 45.8490448,58.5522027 46.5835478,58.5522027 L49.2450682,58.5522027 C49.9795712,58.5522027 50.5757505,57.9560234 50.5757505,57.2215205 C50.5757505,56.4870175 49.9795712,55.8908382 49.2450682,55.8908382 L46.5835478,55.8908382 Z" id="Path"></path>
                        <path d="M41.2606628,47.9064327 L30.6147368,47.9064327 C29.8802339,47.9064327 29.2840546,48.5026121 29.2840546,49.237115 C29.2840546,49.9716179 29.8802339,50.5677973 30.6147368,50.5677973 L41.2606628,50.5677973 C41.9951657,50.5677973 42.591345,49.9716179 42.591345,49.237115 C42.591345,48.5026121 41.9951657,47.9064327 41.2606628,47.9064327 Z" id="Path"></path>
                        <path d="M41.2606628,55.8908382 L30.6147368,55.8908382 C29.8802339,55.8908382 29.2840546,56.4870175 29.2840546,57.2215205 C29.2840546,57.9560234 29.8802339,58.5522027 30.6147368,58.5522027 L41.2606628,58.5522027 C41.9951657,58.5522027 42.591345,57.9560234 42.591345,57.2215205 C42.591345,56.4870175 41.9951657,55.8908382 41.2606628,55.8908382 Z" id="Path"></path>
                        <path d="M72.9440936,54.814347 L70.2825731,52.1528265 C68.237193,50.1074464 65.1206238,50.111501 63.0780507,52.1528265 L45.642729,69.5881481 C45.3938402,69.837037 45.2528655,70.1763743 45.2528655,70.5289669 L45.2528655,78.5133723 C45.2528655,79.2478752 45.8490448,79.8440546 46.5835478,79.8440546 L54.5679532,79.8440546 C54.9205458,79.8440546 55.259883,79.7030799 55.5087719,79.454191 L72.9440936,62.0188694 C75.0640156,59.8989474 75.0640156,56.9355166 72.9440936,54.814347 Z M61.3573489,57.6368031 L63.4679142,59.7473684 L51.9064327,71.3088499 L49.7958674,69.1982846 L61.3573489,57.6368031 Z M47.914386,77.1825341 L47.914386,71.0797661 L54.017154,77.1825341 L47.914386,77.1825341 Z M55.8987914,75.3008967 L53.7882261,73.1903314 L65.3497076,61.6288499 L67.4602729,63.7394152 L55.8987914,75.3008967 Z M71.0624561,60.137232 L69.3417544,61.8579337 L63.2389864,55.7551657 L64.9596881,54.0344639 C66.0109162,52.9844834 67.3444055,52.9791813 68.4009357,54.0344639 L71.0624561,56.6959844 C72.1389474,57.7738791 72.1389474,59.0605848 71.0624561,60.137232 Z" id="Shape"></path>
                        <path d="M41.2606628,77.1825341 L6.66152047,77.1825341 C4.46050682,77.1825341 2.66931774,75.391345 2.66931774,73.1903314 L2.66931774,6.6537232 C2.66931774,4.45270955 4.46050682,2.66152047 6.66152047,2.66152047 L48.6941131,2.66152047 L61.61154,15.5789474 C62.1317739,16.0993372 62.9729435,16.0993372 63.4931774,15.5789474 C64.0135673,15.0587135 64.0135673,14.2175439 63.4931774,13.6973099 L50.1858869,0.389863548 C49.9369981,0.139727096 49.5976608,0 49.2450682,0 L6.66152047,0 C2.99274854,0 0.00795321637,2.98479532 0.00795321637,6.6537232 L0.00795321637,73.1904873 C0.00795321637,76.8592593 2.99274854,79.8442105 6.66167641,79.8442105 L41.2608187,79.8442105 C41.9953216,79.8442105 42.591501,79.2480312 42.591501,78.5135283 C42.591501,77.7790253 41.9951657,77.1825341 41.2606628,77.1825341 Z" id="Path"></path>
                        <path d="M41.2606628,63.8752437 L30.6147368,63.8752437 C29.8802339,63.8752437 29.2840546,64.471423 29.2840546,65.2059259 C29.2840546,65.9404288 29.8802339,66.5366082 30.6147368,66.5366082 L41.2606628,66.5366082 C41.9951657,66.5366082 42.591345,65.9404288 42.591345,65.2059259 C42.591345,64.471423 41.9951657,63.8752437 41.2606628,63.8752437 Z" id="Path"></path>
                        <path d="M23.9611696,25.2838986 C23.9611696,24.5493957 23.3649903,23.9532164 22.6304873,23.9532164 L14.6460819,23.9532164 C13.9115789,23.9532164 13.3153996,24.5493957 13.3153996,25.2838986 L13.3153996,33.2683041 C13.3153996,34.002807 13.9115789,34.5989864 14.6460819,34.5989864 L22.6304873,34.5989864 C23.3649903,34.5989864 23.9611696,34.002807 23.9611696,33.2683041 L23.9611696,25.2838986 Z M21.2996491,31.9376218 L15.9767641,31.9376218 L15.9767641,26.6147368 L21.2996491,26.6147368 L21.2996491,31.9376218 Z" id="Shape"></path>
                        <path d="M14.6459259,66.5367641 L22.6303314,66.5367641 C23.3648343,66.5367641 23.9610136,65.9405848 23.9610136,65.2060819 L23.9610136,57.2216764 C23.9610136,56.4871735 23.3648343,55.8909942 22.6303314,55.8909942 L14.6459259,55.8909942 C13.911423,55.8909942 13.3152437,56.4871735 13.3152437,57.2216764 L13.3152437,65.2060819 C13.3152437,65.9405848 13.911423,66.5367641 14.6459259,66.5367641 Z M15.9767641,58.5523587 L21.2996491,58.5523587 L21.2996491,63.8752437 L15.9767641,63.8752437 L15.9767641,58.5523587 Z" id="Shape"></path>
                        <path d="M16.3666277,50.1779337 C16.6167641,50.4280702 16.9561014,50.5677973 17.3074464,50.5677973 C17.351423,50.5677973 17.3939961,50.5665497 17.4392203,50.5610916 C17.8357895,50.5225731 18.1936842,50.3069006 18.4146589,49.9755166 L23.7375439,41.9911111 C24.1447173,41.3790253 23.9797271,40.5525146 23.3688889,40.1453411 C22.7553996,39.7367641 21.9316959,39.9031579 21.5231189,40.5139961 L17.1011306,47.1477583 L15.5867446,45.6347758 C15.0665107,45.114386 14.2253411,45.114386 13.7051072,45.6347758 C13.1848733,46.1551657 13.1847173,46.9961793 13.7051072,47.5164133 L16.3666277,50.1779337 Z" id="Path"></path>
                    </g>
                </g>
            </g>
        </g>
    </g>
</svg>